<svg xmlns="http://www.w3.org/2000/svg" viewBox="0 0 150.02 150.02"><defs><style>.cls-1{fill:#fff;}.cls-2,.cls-3{fill:#ffba7f;}.cls-3{stroke:#000;stroke-miterlimit:10;stroke-width:2px;}</style></defs><title>logoAsset 6</title><g id="Layer_2" data-name="Layer 2"><g id="Layer_1-2" data-name="Layer 1"><rect class="cls-1" x="20.8" y="20.8" width="108.42" height="108.42" rx="4" ry="4" transform="translate(75.01 -31.07) rotate(45)"/><rect class="cls-2" x="24.96" y="24.96" width="100.11" height="100.11" rx="4" ry="4" transform="translate(75.01 -31.07) rotate(45)"/><rect class="cls-3" x="29.27" y="29.27" width="91.47" height="91.47" rx="4" ry="4" transform="translate(75.01 -31.07) rotate(45)"/><path d="M43.29,65.23q0,.8,0,1.56a6.17,6.17,0,0,0,.23,1.36,2.48,2.48,0,0,0,.53,1,1.33,1.33,0,0,0,.94.41q1.35,0,1.36-1.73,0-2.36-2.67-4.72L42.3,61.89q-.6-.5-1.24-1.07a7.74,7.74,0,0,1-1.17-1.32A7.06,7.06,0,0,1,39,57.78a6.9,6.9,0,0,1-.34-2.3A6.32,6.32,0,0,1,39.14,53a5.33,5.33,0,0,1,1.3-1.88,5.72,5.72,0,0,1,2-1.19,7.79,7.79,0,0,1,2.61-.41,5.47,5.47,0,0,1,2.24.46,6,6,0,0,1,1.83,1.26,5.87,5.87,0,0,1,1.24,1.85,5.68,5.68,0,0,1,.45,2.25v.54l-4.72.65c0-.05,0-.11,0-.19s0-.16,0-.24,0-.17,0-.26,0-.16,0-.23a6.42,6.42,0,0,0-.06-.87,3.46,3.46,0,0,0-.22-.84,1.69,1.69,0,0,0-.44-.63,1,1,0,0,0-.72-.25,1.29,1.29,0,0,0-.66.16,1.43,1.43,0,0,0-.47.44,2,2,0,0,0-.28.63,2.93,2.93,0,0,0-.09.75,4,4,0,0,0,.13,1,3.58,3.58,0,0,0,.38.9,4.79,4.79,0,0,0,.61.82,8.72,8.72,0,0,0,.82.78L46.77,60a19.53,19.53,0,0,1,1.65,1.62,10.53,10.53,0,0,1,1.29,1.76,8.46,8.46,0,0,1,.83,2,8.6,8.6,0,0,1,.3,2.32,5.11,5.11,0,0,1-.46,2.17,5.29,5.29,0,0,1-1.24,1.71,5.72,5.72,0,0,1-1.85,1.12,6.35,6.35,0,0,1-2.27.4,6.28,6.28,0,0,1-2.76-.56,5.68,5.68,0,0,1-2-1.52,6.68,6.68,0,0,1-1.19-2.21,10,10,0,0,1-.46-2.63Z"/><path d="M56.19,50h4l4.87,22.6H60.59l-.93-4.83H56.71l-.88,4.83H51.3Zm3.18,15-1.14-8.39L57,64.94Z"/><path d="M66.67,50H76.1v3.14H71.24v6.15h3.44V62.5H71.24V72.59H66.67Z"/><path d="M77.7,50h9.43v3.14H82.27v6.15h3.44V62.5H82.27v7h4.86v3.14H77.7Z"/><path d="M91,53.41H87.73V50H98.87v3.41H95.61V72.59H91Z"/><path d="M103.36,65.12,99.12,50h4.31l2.11,9.93L107.85,50H112l-4.26,15.13v7.47h-4.42Z"/><path d="M45.35,74.7H55.63v3.42h-5.3v6.71h3.75v3.51H50.33v11h-5Z"/><path d="M57.38,74.7h5V99.35h-5Z"/><path d="M65.3,74.7h5.42a14,14,0,0,1,3.26.35,6.65,6.65,0,0,1,2.48,1.12,5,5,0,0,1,1.58,2,7.4,7.4,0,0,1,.55,3q0,.84-.09,1.73a6.13,6.13,0,0,1-.43,1.73,5.21,5.21,0,0,1-1,1.56,5.41,5.41,0,0,1-1.82,1.23q2.22,7.05,3.86,11.91H73.93L71.11,88h-.82V99.35h-5ZM71.71,85a1.31,1.31,0,0,0,.69-.18,1.75,1.75,0,0,0,.51-.47,2.85,2.85,0,0,0,.36-.65,4.26,4.26,0,0,0,.22-.74,7.1,7.1,0,0,0,.11-.73c0-.23,0-.44,0-.61a8.74,8.74,0,0,0-.06-.94,4.56,4.56,0,0,0-.25-1.06,2.61,2.61,0,0,0-.51-.87,1.11,1.11,0,0,0-.86-.36H70.29V85Z"/><path d="M85.2,91.33q0,.88.05,1.71a6.68,6.68,0,0,0,.25,1.49,2.72,2.72,0,0,0,.58,1.07,1.45,1.45,0,0,0,1,.45q1.48,0,1.48-1.89,0-2.57-2.92-5.15l-1.55-1.31q-.66-.55-1.36-1.17a8.39,8.39,0,0,1-1.27-1.44,7.65,7.65,0,0,1-1-1.88,7.54,7.54,0,0,1-.38-2.51,6.9,6.9,0,0,1,.51-2.7,5.82,5.82,0,0,1,1.42-2,6.23,6.23,0,0,1,2.19-1.29,8.49,8.49,0,0,1,2.84-.45,6,6,0,0,1,2.44.51,6.5,6.5,0,0,1,2,1.37,6.41,6.41,0,0,1,1.35,2,6.22,6.22,0,0,1,.49,2.46v.59l-5.15.71c0-.05,0-.12,0-.21s0-.17,0-.27V81.1c0-.09,0-.17,0-.25a7,7,0,0,0-.07-1A3.77,3.77,0,0,0,88,79a1.85,1.85,0,0,0-.48-.69A1.14,1.14,0,0,0,86.7,78a1.41,1.41,0,0,0-.72.18,1.57,1.57,0,0,0-.51.48,2.23,2.23,0,0,0-.31.69,3.19,3.19,0,0,0-.1.81,4.36,4.36,0,0,0,.14,1.13,3.86,3.86,0,0,0,.41,1,5.19,5.19,0,0,0,.66.89,9.46,9.46,0,0,0,.9.85L89,85.59a21.32,21.32,0,0,1,1.8,1.77,11.49,11.49,0,0,1,1.4,1.92,9.28,9.28,0,0,1,.91,2.17A9.4,9.4,0,0,1,93.43,94a5.58,5.58,0,0,1-.5,2.37,5.78,5.78,0,0,1-1.36,1.86,6.23,6.23,0,0,1-2,1.22,6.93,6.93,0,0,1-2.47.44,6.85,6.85,0,0,1-3-.62,6.2,6.2,0,0,1-2.13-1.66,7.3,7.3,0,0,1-1.29-2.41,11,11,0,0,1-.51-2.87Z"/><path d="M97.37,78.43H93.76V74.7H105.9v3.73h-3.55V99.35h-5Z"/><path d="M59.43,101.21H63.9a5.73,5.73,0,0,1,2.08.34,3.52,3.52,0,0,1,1.44,1,4.18,4.18,0,0,1,.83,1.64,8.63,8.63,0,0,1,.27,2.25,8,8,0,0,1-.37,2.62,3.79,3.79,0,0,1-1.05,1.63,3.87,3.87,0,0,1-1.67.84,9.94,9.94,0,0,1-2.23.25h0v7.91H59.43Zm3.89,7.94a2.11,2.11,0,0,0,.94-.17,1,1,0,0,0,.49-.51,2.45,2.45,0,0,0,.19-.86q0-.52,0-1.23t0-1.1a2.22,2.22,0,0,0-.21-.79,1,1,0,0,0-.48-.47,2,2,0,0,0-.86-.15h-.21v5.28Z"/><path d="M70,101.21h3.74a11.78,11.78,0,0,1,3.1.34,4.14,4.14,0,0,1,1.91,1.06,3.94,3.94,0,0,1,1,1.86A11.83,11.83,0,0,1,80,107.2v6.06q0,1-.07,1.9a7.23,7.23,0,0,1-.3,1.59A4.14,4.14,0,0,1,79,118a3.4,3.4,0,0,1-1.1.92,5.88,5.88,0,0,1-1.68.57,12.49,12.49,0,0,1-2.37.2H70Zm3.82,15.87q.67,0,1.13,0a1.73,1.73,0,0,0,.75-.2,1,1,0,0,0,.42-.52,3.09,3.09,0,0,0,.13-1v-10a1.9,1.9,0,0,0-.13-.75,1,1,0,0,0-.42-.47,2,2,0,0,0-.73-.24,7.58,7.58,0,0,0-1.09-.07h-.14v13.24Z"/><path d="M83.71,110.14l-3-8.93h3.55L86,106.74l1.87-5.53h3.47l-3,8.86,2.95,9.62H87.77L86,113.59l-1.75,6.11H80.73Z"/></g></g></svg>